<?xml version="1.0" encoding="UTF-8" standalone="no"?>
<!DOCTYPE svg PUBLIC "-//W3C//DTD SVG 1.1//EN"
 "http://www.w3.org/Graphics/SVG/1.1/DTD/svg11.dtd">
<!-- Generated by graphviz version 2.38.0 (20140413.2041)
 -->
<!-- Title: controllers_diagram Pages: 1 -->
<svg width="802pt" height="795pt"
 viewBox="0.00 0.00 802.41 794.62" xmlns="http://www.w3.org/2000/svg" xmlns:xlink="http://www.w3.org/1999/xlink">
<g id="graph0" class="graph" transform="scale(1 1) rotate(0) translate(352.413 385.039)">
<title>controllers_diagram</title>
<polygon fill="none" stroke="none" points="-352.413,409.583 -352.413,-385.039 450,-385.039 450,409.583 -352.413,409.583"/>
<!-- _diagram_info -->
<g id="node1" class="node"><title>_diagram_info</title>
<text text-anchor="start" x="240" y="-5.6" font-family="Times,serif" font-size="13.00">Controllers diagram</text>
<text text-anchor="start" x="240" y="8.4" font-family="Times,serif" font-size="13.00">Date: May 11 2017 &#45; 11:29</text>
<text text-anchor="start" x="240" y="22.4" font-family="Times,serif" font-size="13.00">Migration version: 20170102123521</text>
<text text-anchor="start" x="240" y="36.4" font-family="Times,serif" font-size="13.00">Generated by RailRoady 1.5.2</text>
<text text-anchor="start" x="240" y="50.4" font-family="Times,serif" font-size="13.00">http://railroady.prestonlee.com</text>
</g>
<!-- Dashboard::CardsController -->
<g id="node2" class="node"><title>Dashboard::CardsController</title>
<path fill="none" stroke="black" d="M-336.413,141.227C-336.413,141.227 -190.413,141.227 -190.413,141.227 -184.413,141.227 -178.413,135.227 -178.413,129.227 -178.413,129.227 -178.413,-74.7726 -178.413,-74.7726 -178.413,-80.7726 -184.413,-86.7726 -190.413,-86.7726 -190.413,-86.7726 -336.413,-86.7726 -336.413,-86.7726 -342.413,-86.7726 -348.413,-80.7726 -348.413,-74.7726 -348.413,-74.7726 -348.413,129.227 -348.413,129.227 -348.413,135.227 -342.413,141.227 -336.413,141.227"/>
<text text-anchor="middle" x="-263.413" y="-71.5726" font-family="Times,serif" font-size="14.00">Dashboard::CardsController</text>
<polyline fill="none" stroke="black" points="-348.413,-63.7726 -178.413,-63.7726 "/>
<text text-anchor="start" x="-340.413" y="-48.5726" font-family="Times,serif" font-size="14.00">create</text>
<text text-anchor="start" x="-340.413" y="-33.5726" font-family="Times,serif" font-size="14.00">destroy</text>
<text text-anchor="start" x="-340.413" y="-18.5726" font-family="Times,serif" font-size="14.00">edit</text>
<text text-anchor="start" x="-340.413" y="-3.57264" font-family="Times,serif" font-size="14.00">index</text>
<text text-anchor="start" x="-340.413" y="11.4274" font-family="Times,serif" font-size="14.00">new</text>
<text text-anchor="start" x="-340.413" y="26.4274" font-family="Times,serif" font-size="14.00">show</text>
<text text-anchor="start" x="-340.413" y="41.4274" font-family="Times,serif" font-size="14.00">update</text>
<polyline fill="none" stroke="black" points="-348.413,49.2274 -178.413,49.2274 "/>
<polyline fill="none" stroke="black" points="-348.413,73.2274 -178.413,73.2274 "/>
<text text-anchor="start" x="-340.413" y="88.4274" font-family="Times,serif" font-size="14.00">_layout</text>
<text text-anchor="start" x="-340.413" y="103.427" font-family="Times,serif" font-size="14.00">card_params</text>
<text text-anchor="start" x="-340.413" y="118.427" font-family="Times,serif" font-size="14.00">current_user_card</text>
<text text-anchor="start" x="-340.413" y="133.427" font-family="Times,serif" font-size="14.00">set_current_card</text>
</g>
<!-- Dashboard::HomeController -->
<g id="node3" class="node"><title>Dashboard::HomeController</title>
<path fill="none" stroke="black" d="M133.699,306.82C133.699,306.82 281.699,306.82 281.699,306.82 287.699,306.82 293.699,300.82 293.699,294.82 293.699,294.82 293.699,165.82 293.699,165.82 293.699,159.82 287.699,153.82 281.699,153.82 281.699,153.82 133.699,153.82 133.699,153.82 127.699,153.82 121.699,159.82 121.699,165.82 121.699,165.82 121.699,294.82 121.699,294.82 121.699,300.82 127.699,306.82 133.699,306.82"/>
<text text-anchor="middle" x="207.699" y="169.02" font-family="Times,serif" font-size="14.00">Dashboard::HomeController</text>
<polyline fill="none" stroke="black" points="121.699,176.82 293.699,176.82 "/>
<text text-anchor="start" x="129.699" y="192.02" font-family="Times,serif" font-size="14.00">check</text>
<text text-anchor="start" x="129.699" y="207.02" font-family="Times,serif" font-size="14.00">index</text>
<text text-anchor="start" x="129.699" y="222.02" font-family="Times,serif" font-size="14.00">show</text>
<polyline fill="none" stroke="black" points="121.699,229.82 293.699,229.82 "/>
<polyline fill="none" stroke="black" points="121.699,253.82 293.699,253.82 "/>
<text text-anchor="start" x="129.699" y="269.02" font-family="Times,serif" font-size="14.00">_layout</text>
<text text-anchor="start" x="129.699" y="284.02" font-family="Times,serif" font-size="14.00">card_params</text>
<text text-anchor="start" x="129.699" y="299.02" font-family="Times,serif" font-size="14.00">deck_params</text>
</g>
<!-- Dashboard::DecksController -->
<g id="node4" class="node"><title>Dashboard::DecksController</title>
<path fill="none" stroke="black" d="M-251.08,405.083C-251.08,405.083 -103.08,405.083 -103.08,405.083 -97.0799,405.083 -91.0799,399.083 -91.0799,393.083 -91.0799,393.083 -91.0799,174.083 -91.0799,174.083 -91.0799,168.083 -97.0799,162.083 -103.08,162.083 -103.08,162.083 -251.08,162.083 -251.08,162.083 -257.08,162.083 -263.08,168.083 -263.08,174.083 -263.08,174.083 -263.08,393.083 -263.08,393.083 -263.08,399.083 -257.08,405.083 -251.08,405.083"/>
<text text-anchor="middle" x="-177.08" y="177.283" font-family="Times,serif" font-size="14.00">Dashboard::DecksController</text>
<polyline fill="none" stroke="black" points="-263.08,185.083 -91.0799,185.083 "/>
<text text-anchor="start" x="-255.08" y="200.283" font-family="Times,serif" font-size="14.00">create</text>
<text text-anchor="start" x="-255.08" y="215.283" font-family="Times,serif" font-size="14.00">destroy</text>
<text text-anchor="start" x="-255.08" y="230.283" font-family="Times,serif" font-size="14.00">edit</text>
<text text-anchor="start" x="-255.08" y="245.283" font-family="Times,serif" font-size="14.00">index</text>
<text text-anchor="start" x="-255.08" y="260.283" font-family="Times,serif" font-size="14.00">new</text>
<text text-anchor="start" x="-255.08" y="275.283" font-family="Times,serif" font-size="14.00">show</text>
<text text-anchor="start" x="-255.08" y="290.283" font-family="Times,serif" font-size="14.00">update</text>
<polyline fill="none" stroke="black" points="-263.08,298.083 -91.0799,298.083 "/>
<polyline fill="none" stroke="black" points="-263.08,322.083 -91.0799,322.083 "/>
<text text-anchor="start" x="-255.08" y="337.283" font-family="Times,serif" font-size="14.00">_layout</text>
<text text-anchor="start" x="-255.08" y="352.283" font-family="Times,serif" font-size="14.00">check_active_deck</text>
<text text-anchor="start" x="-255.08" y="367.283" font-family="Times,serif" font-size="14.00">current_user_decks</text>
<text text-anchor="start" x="-255.08" y="382.283" font-family="Times,serif" font-size="14.00">deck_params</text>
<text text-anchor="start" x="-255.08" y="397.283" font-family="Times,serif" font-size="14.00">set_current_deck</text>
</g>
<!-- Home::UsersController -->
<g id="node5" class="node"><title>Home::UsersController</title>
<path fill="none" stroke="black" d="M-306.717,-175.37C-306.717,-175.37 -186.717,-175.37 -186.717,-175.37 -180.717,-175.37 -174.717,-181.37 -174.717,-187.37 -174.717,-187.37 -174.717,-361.37 -174.717,-361.37 -174.717,-367.37 -180.717,-373.37 -186.717,-373.37 -186.717,-373.37 -306.717,-373.37 -306.717,-373.37 -312.717,-373.37 -318.717,-367.37 -318.717,-361.37 -318.717,-361.37 -318.717,-187.37 -318.717,-187.37 -318.717,-181.37 -312.717,-175.37 -306.717,-175.37"/>
<text text-anchor="middle" x="-246.717" y="-358.17" font-family="Times,serif" font-size="14.00">Home::UsersController</text>
<polyline fill="none" stroke="black" points="-318.717,-350.37 -174.717,-350.37 "/>
<text text-anchor="start" x="-310.717" y="-335.17" font-family="Times,serif" font-size="14.00">create</text>
<text text-anchor="start" x="-310.717" y="-320.17" font-family="Times,serif" font-size="14.00">edit</text>
<text text-anchor="start" x="-310.717" y="-305.17" font-family="Times,serif" font-size="14.00">new</text>
<text text-anchor="start" x="-310.717" y="-290.17" font-family="Times,serif" font-size="14.00">show</text>
<text text-anchor="start" x="-310.717" y="-275.17" font-family="Times,serif" font-size="14.00">update</text>
<polyline fill="none" stroke="black" points="-318.717,-267.37 -174.717,-267.37 "/>
<polyline fill="none" stroke="black" points="-318.717,-243.37 -174.717,-243.37 "/>
<text text-anchor="start" x="-310.717" y="-228.17" font-family="Times,serif" font-size="14.00">_layout</text>
<text text-anchor="start" x="-310.717" y="-213.17" font-family="Times,serif" font-size="14.00">find_user</text>
<text text-anchor="start" x="-310.717" y="-198.17" font-family="Times,serif" font-size="14.00">set_current_user</text>
<text text-anchor="start" x="-310.717" y="-183.17" font-family="Times,serif" font-size="14.00">user_params</text>
</g>
<!-- Home::OauthsController -->
<g id="node6" class="node"><title>Home::OauthsController</title>
<path fill="none" stroke="black" d="M195.58,-138.941C195.58,-138.941 323.58,-138.941 323.58,-138.941 329.58,-138.941 335.58,-144.941 335.58,-150.941 335.58,-150.941 335.58,-249.941 335.58,-249.941 335.58,-255.941 329.58,-261.941 323.58,-261.941 323.58,-261.941 195.58,-261.941 195.58,-261.941 189.58,-261.941 183.58,-255.941 183.58,-249.941 183.58,-249.941 183.58,-150.941 183.58,-150.941 183.58,-144.941 189.58,-138.941 195.58,-138.941"/>
<text text-anchor="middle" x="259.58" y="-246.741" font-family="Times,serif" font-size="14.00">Home::OauthsController</text>
<polyline fill="none" stroke="black" points="183.58,-238.941 335.58,-238.941 "/>
<text text-anchor="start" x="191.58" y="-223.741" font-family="Times,serif" font-size="14.00">callback</text>
<text text-anchor="start" x="191.58" y="-208.741" font-family="Times,serif" font-size="14.00">oauth</text>
<polyline fill="none" stroke="black" points="183.58,-200.941 335.58,-200.941 "/>
<polyline fill="none" stroke="black" points="183.58,-176.941 335.58,-176.941 "/>
<text text-anchor="start" x="191.58" y="-161.741" font-family="Times,serif" font-size="14.00">_layout</text>
<text text-anchor="start" x="191.58" y="-146.741" font-family="Times,serif" font-size="14.00">auth_params</text>
</g>
<!-- Home::SessionsController -->
<g id="node7" class="node"><title>Home::SessionsController</title>
<path fill="none" stroke="black" d="M-35.826,-242.539C-35.826,-242.539 100.174,-242.539 100.174,-242.539 106.174,-242.539 112.174,-248.539 112.174,-254.539 112.174,-254.539 112.174,-368.539 112.174,-368.539 112.174,-374.539 106.174,-380.539 100.174,-380.539 100.174,-380.539 -35.826,-380.539 -35.826,-380.539 -41.826,-380.539 -47.826,-374.539 -47.826,-368.539 -47.826,-368.539 -47.826,-254.539 -47.826,-254.539 -47.826,-248.539 -41.826,-242.539 -35.826,-242.539"/>
<text text-anchor="middle" x="32.174" y="-365.339" font-family="Times,serif" font-size="14.00">Home::SessionsController</text>
<polyline fill="none" stroke="black" points="-47.826,-357.539 112.174,-357.539 "/>
<text text-anchor="start" x="-39.826" y="-342.339" font-family="Times,serif" font-size="14.00">create</text>
<text text-anchor="start" x="-39.826" y="-327.339" font-family="Times,serif" font-size="14.00">destroy</text>
<text text-anchor="start" x="-39.826" y="-312.339" font-family="Times,serif" font-size="14.00">new</text>
<polyline fill="none" stroke="black" points="-47.826,-304.539 112.174,-304.539 "/>
<polyline fill="none" stroke="black" points="-47.826,-280.539 112.174,-280.539 "/>
<text text-anchor="start" x="-39.826" y="-265.339" font-family="Times,serif" font-size="14.00">_layout</text>
<text text-anchor="start" x="-39.826" y="-250.339" font-family="Times,serif" font-size="14.00">user_params</text>
</g>
<!-- ApplicationController -->
<g id="node8" class="node"><title>ApplicationController</title>
<path fill="none" stroke="black" d="M-38.2166,59.0707C-38.2166,59.0707 73.7834,59.0707 73.7834,59.0707 79.7834,59.0707 85.7834,53.0707 85.7834,47.0707 85.7834,47.0707 85.7834,-51.9293 85.7834,-51.9293 85.7834,-57.9293 79.7834,-63.9293 73.7834,-63.9293 73.7834,-63.9293 -38.2166,-63.9293 -38.2166,-63.9293 -44.2166,-63.9293 -50.2166,-57.9293 -50.2166,-51.9293 -50.2166,-51.9293 -50.2166,47.0707 -50.2166,47.0707 -50.2166,53.0707 -44.2166,59.0707 -38.2166,59.0707"/>
<text text-anchor="middle" x="17.7834" y="-48.7293" font-family="Times,serif" font-size="14.00">ApplicationController</text>
<polyline fill="none" stroke="black" points="-50.2166,-40.9293 85.7834,-40.9293 "/>
<text text-anchor="start" x="-42.2166" y="-25.7293" font-family="Times,serif" font-size="14.00">default_url_options</text>
<text text-anchor="start" x="-42.2166" y="-10.7293" font-family="Times,serif" font-size="14.00">set_locale</text>
<polyline fill="none" stroke="black" points="-50.2166,-2.92928 85.7834,-2.92928 "/>
<polyline fill="none" stroke="black" points="-50.2166,21.0707 85.7834,21.0707 "/>
<text text-anchor="start" x="-42.2166" y="36.2707" font-family="Times,serif" font-size="14.00">_layout</text>
<text text-anchor="start" x="-42.2166" y="51.2707" font-family="Times,serif" font-size="14.00">not_authenticated</text>
</g>
<!-- ApplicationController&#45;&gt;Dashboard::CardsController -->
<g id="edge1" class="edge"><title>ApplicationController&#45;&gt;Dashboard::CardsController</title>
<path fill="none" stroke="black" d="M-50.2865,4.74976C-88.8087,8.81254 -137.334,13.9303 -178.348,18.2558"/>
</g>
<!-- ApplicationController&#45;&gt;Dashboard::HomeController -->
<g id="edge2" class="edge"><title>ApplicationController&#45;&gt;Dashboard::HomeController</title>
<path fill="none" stroke="black" d="M68.1788,59.3322C91.8051,88.2872 120.191,123.076 145.174,153.692"/>
</g>
<!-- ApplicationController&#45;&gt;Dashboard::DecksController -->
<g id="edge3" class="edge"><title>ApplicationController&#45;&gt;Dashboard::DecksController</title>
<path fill="none" stroke="black" d="M-24.2591,59.279C-44.7338,89.331 -70.0952,126.555 -94.2345,161.986"/>
</g>
<!-- ApplicationController&#45;&gt;Home::UsersController -->
<g id="edge4" class="edge"><title>ApplicationController&#45;&gt;Home::UsersController</title>
<path fill="none" stroke="black" d="M-42.2358,-64.1368C-81.56,-104.567 -133.175,-157.634 -174.709,-200.336"/>
</g>
<!-- ApplicationController&#45;&gt;Home::OauthsController -->
<g id="edge5" class="edge"><title>ApplicationController&#45;&gt;Home::OauthsController</title>
<path fill="none" stroke="black" d="M86.103,-58.3774C116.687,-83.423 152.846,-113.034 184.215,-138.723"/>
</g>
<!-- ApplicationController&#45;&gt;Home::SessionsController -->
<g id="edge6" class="edge"><title>ApplicationController&#45;&gt;Home::SessionsController</title>
<path fill="none" stroke="black" d="M20.661,-64.2393C23.056,-115.685 26.4639,-188.886 28.9504,-242.295"/>
</g>
</g>
</svg>
