<?xml version="1.0" encoding="UTF-8" standalone="no"?>
<!DOCTYPE svg PUBLIC "-//W3C//DTD SVG 1.1//EN"
 "http://www.w3.org/Graphics/SVG/1.1/DTD/svg11.dtd">
<!-- Generated by graphviz version 2.38.0 (20140413.2041)
 -->
<!-- Title: models_diagram Pages: 1 -->
<svg width="720pt" height="860pt"
 viewBox="0.00 0.00 720.00 860.00" xmlns="http://www.w3.org/2000/svg" xmlns:xlink="http://www.w3.org/1999/xlink">
<g id="graph0" class="graph" transform="scale(1 1) rotate(0) translate(4 856)">
<title>models_diagram</title>
<polygon fill="none" stroke="none" points="-4,4 -4,-856 716,-856 716,4 -4,4"/>
<!-- _diagram_info -->
<g id="node1" class="node"><title>_diagram_info</title>
<text text-anchor="start" x="8" y="-837.6" font-family="Times,serif" font-size="13.00">Models diagram</text>
<text text-anchor="start" x="8" y="-823.6" font-family="Times,serif" font-size="13.00">Date: May 11 2017 &#45; 11:29</text>
<text text-anchor="start" x="8" y="-809.6" font-family="Times,serif" font-size="13.00">Migration version: 20170102123521</text>
<text text-anchor="start" x="8" y="-795.6" font-family="Times,serif" font-size="13.00">Generated by RailRoady 1.5.2</text>
<text text-anchor="start" x="8" y="-781.6" font-family="Times,serif" font-size="13.00">http://railroady.prestonlee.com</text>
</g>
<!-- Card -->
<g id="node2" class="node"><title>Card</title>
<path fill="none" stroke="black" d="M310,-0.5C310,-0.5 570,-0.5 570,-0.5 576,-0.5 582,-6.5 582,-12.5 582,-12.5 582,-244.5 582,-244.5 582,-250.5 576,-256.5 570,-256.5 570,-256.5 310,-256.5 310,-256.5 304,-256.5 298,-250.5 298,-244.5 298,-244.5 298,-12.5 298,-12.5 298,-6.5 304,-0.5 310,-0.5"/>
<text text-anchor="middle" x="440" y="-241.3" font-family="Times,serif" font-size="14.00">Card</text>
<polyline fill="none" stroke="black" points="298,-233.5 582,-233.5 "/>
<text text-anchor="start" x="306" y="-218.3" font-family="Times,serif" font-size="14.00">id :integer</text>
<text text-anchor="start" x="306" y="-203.3" font-family="Times,serif" font-size="14.00">original_text :character varying</text>
<text text-anchor="start" x="306" y="-188.3" font-family="Times,serif" font-size="14.00">translated_text :character varying</text>
<text text-anchor="start" x="306" y="-173.3" font-family="Times,serif" font-size="14.00">review_date :timestamp without time zone</text>
<text text-anchor="start" x="306" y="-158.3" font-family="Times,serif" font-size="14.00">created_at :timestamp without time zone</text>
<text text-anchor="start" x="306" y="-143.3" font-family="Times,serif" font-size="14.00">updated_at :timestamp without time zone</text>
<text text-anchor="start" x="306" y="-128.3" font-family="Times,serif" font-size="14.00">user_id :integer</text>
<text text-anchor="start" x="306" y="-113.3" font-family="Times,serif" font-size="14.00">image_file_name :character varying</text>
<text text-anchor="start" x="306" y="-98.3" font-family="Times,serif" font-size="14.00">image_content_type :character varying</text>
<text text-anchor="start" x="306" y="-83.3" font-family="Times,serif" font-size="14.00">image_file_size :integer</text>
<text text-anchor="start" x="306" y="-68.3" font-family="Times,serif" font-size="14.00">image_updated_at :timestamp without time zone</text>
<text text-anchor="start" x="306" y="-53.3" font-family="Times,serif" font-size="14.00">deck_id :integer</text>
<text text-anchor="start" x="306" y="-38.3" font-family="Times,serif" font-size="14.00">efactor :double precision</text>
<text text-anchor="start" x="306" y="-23.3" font-family="Times,serif" font-size="14.00">counter :integer</text>
<text text-anchor="start" x="306" y="-8.3" font-family="Times,serif" font-size="14.00">timer :integer</text>
</g>
<!-- ApplicationRecord -->
<g id="node3" class="node"><title>ApplicationRecord</title>
<ellipse fill="none" stroke="black" cx="309" cy="-813" rx="77.1866" ry="18"/>
<text text-anchor="middle" x="309" y="-809.3" font-family="Times,serif" font-size="14.00">ApplicationRecord</text>
</g>
<!-- ApplicationRecord&#45;&gt;Card -->
<g id="edge1" class="edge"><title>ApplicationRecord&#45;&gt;Card</title>
<path fill="none" stroke="black" d="M275.796,-796.706C242.568,-780.678 194.861,-755.449 184,-738 79.3214,-569.828 60.2443,-464.717 159,-293 189.46,-240.036 244.404,-202.629 297.679,-177.093"/>
</g>
<!-- Authentication -->
<g id="node4" class="node"><title>Authentication</title>
<path fill="none" stroke="black" d="M180,-293.5C180,-293.5 400,-293.5 400,-293.5 406,-293.5 412,-299.5 412,-305.5 412,-305.5 412,-402.5 412,-402.5 412,-408.5 406,-414.5 400,-414.5 400,-414.5 180,-414.5 180,-414.5 174,-414.5 168,-408.5 168,-402.5 168,-402.5 168,-305.5 168,-305.5 168,-299.5 174,-293.5 180,-293.5"/>
<text text-anchor="middle" x="290" y="-399.3" font-family="Times,serif" font-size="14.00">Authentication</text>
<polyline fill="none" stroke="black" points="168,-391.5 412,-391.5 "/>
<text text-anchor="start" x="176" y="-376.3" font-family="Times,serif" font-size="14.00">id :integer</text>
<text text-anchor="start" x="176" y="-361.3" font-family="Times,serif" font-size="14.00">user_id :integer</text>
<text text-anchor="start" x="176" y="-346.3" font-family="Times,serif" font-size="14.00">provider :character varying</text>
<text text-anchor="start" x="176" y="-331.3" font-family="Times,serif" font-size="14.00">uid :character varying</text>
<text text-anchor="start" x="176" y="-316.3" font-family="Times,serif" font-size="14.00">created_at :timestamp without time zone</text>
<text text-anchor="start" x="176" y="-301.3" font-family="Times,serif" font-size="14.00">updated_at :timestamp without time zone</text>
</g>
<!-- ApplicationRecord&#45;&gt;Authentication -->
<g id="edge2" class="edge"><title>ApplicationRecord&#45;&gt;Authentication</title>
<path fill="none" stroke="black" d="M279.637,-796.251C259.29,-783.531 233.814,-763.559 222,-738 168.48,-622.216 183.313,-572.547 222,-451 225.995,-438.447 232.294,-426.125 239.482,-414.715"/>
</g>
<!-- User -->
<g id="node5" class="node"><title>User</title>
<path fill="none" stroke="black" d="M243.5,-451.5C243.5,-451.5 586.5,-451.5 586.5,-451.5 592.5,-451.5 598.5,-457.5 598.5,-463.5 598.5,-463.5 598.5,-725.5 598.5,-725.5 598.5,-731.5 592.5,-737.5 586.5,-737.5 586.5,-737.5 243.5,-737.5 243.5,-737.5 237.5,-737.5 231.5,-731.5 231.5,-725.5 231.5,-725.5 231.5,-463.5 231.5,-463.5 231.5,-457.5 237.5,-451.5 243.5,-451.5"/>
<text text-anchor="middle" x="415" y="-722.3" font-family="Times,serif" font-size="14.00">User</text>
<polyline fill="none" stroke="black" points="231.5,-714.5 598.5,-714.5 "/>
<text text-anchor="start" x="239.5" y="-699.3" font-family="Times,serif" font-size="14.00">id :integer</text>
<text text-anchor="start" x="239.5" y="-684.3" font-family="Times,serif" font-size="14.00">email :character varying</text>
<text text-anchor="start" x="239.5" y="-669.3" font-family="Times,serif" font-size="14.00">password :character varying</text>
<text text-anchor="start" x="239.5" y="-654.3" font-family="Times,serif" font-size="14.00">created_at :timestamp without time zone</text>
<text text-anchor="start" x="239.5" y="-639.3" font-family="Times,serif" font-size="14.00">updated_at :timestamp without time zone</text>
<text text-anchor="start" x="239.5" y="-624.3" font-family="Times,serif" font-size="14.00">remember_me_token :character varying</text>
<text text-anchor="start" x="239.5" y="-609.3" font-family="Times,serif" font-size="14.00">remember_me_token_expires_at :timestamp without time zone</text>
<text text-anchor="start" x="239.5" y="-594.3" font-family="Times,serif" font-size="14.00">reset_password_token :character varying</text>
<text text-anchor="start" x="239.5" y="-579.3" font-family="Times,serif" font-size="14.00">reset_password_token_expires_at :timestamp without time zone</text>
<text text-anchor="start" x="239.5" y="-564.3" font-family="Times,serif" font-size="14.00">reset_password_email_sent_at :timestamp without time zone</text>
<text text-anchor="start" x="239.5" y="-549.3" font-family="Times,serif" font-size="14.00">salt :character varying</text>
<text text-anchor="start" x="239.5" y="-534.3" font-family="Times,serif" font-size="14.00">crypted_password :character varying</text>
<text text-anchor="start" x="239.5" y="-519.3" font-family="Times,serif" font-size="14.00">last_login_at :timestamp without time zone</text>
<text text-anchor="start" x="239.5" y="-504.3" font-family="Times,serif" font-size="14.00">last_logout_at :timestamp without time zone</text>
<text text-anchor="start" x="239.5" y="-489.3" font-family="Times,serif" font-size="14.00">last_activity_at :timestamp without time zone</text>
<text text-anchor="start" x="239.5" y="-474.3" font-family="Times,serif" font-size="14.00">last_login_from_ip_address :character varying</text>
<text text-anchor="start" x="239.5" y="-459.3" font-family="Times,serif" font-size="14.00">locale :character varying</text>
</g>
<!-- ApplicationRecord&#45;&gt;User -->
<g id="edge6" class="edge"><title>ApplicationRecord&#45;&gt;User</title>
<path fill="none" stroke="black" d="M317.318,-795.012C324.028,-781.305 334.18,-760.571 345.44,-737.573"/>
</g>
<!-- Deck -->
<g id="node6" class="node"><title>Deck</title>
<path fill="none" stroke="black" d="M480,-293.5C480,-293.5 700,-293.5 700,-293.5 706,-293.5 712,-299.5 712,-305.5 712,-305.5 712,-402.5 712,-402.5 712,-408.5 706,-414.5 700,-414.5 700,-414.5 480,-414.5 480,-414.5 474,-414.5 468,-408.5 468,-402.5 468,-402.5 468,-305.5 468,-305.5 468,-299.5 474,-293.5 480,-293.5"/>
<text text-anchor="middle" x="590" y="-399.3" font-family="Times,serif" font-size="14.00">Deck</text>
<polyline fill="none" stroke="black" points="468,-391.5 712,-391.5 "/>
<text text-anchor="start" x="476" y="-376.3" font-family="Times,serif" font-size="14.00">id :integer</text>
<text text-anchor="start" x="476" y="-361.3" font-family="Times,serif" font-size="14.00">user_id :integer</text>
<text text-anchor="start" x="476" y="-346.3" font-family="Times,serif" font-size="14.00">name :character varying</text>
<text text-anchor="start" x="476" y="-331.3" font-family="Times,serif" font-size="14.00">active :boolean</text>
<text text-anchor="start" x="476" y="-316.3" font-family="Times,serif" font-size="14.00">created_at :timestamp without time zone</text>
<text text-anchor="start" x="476" y="-301.3" font-family="Times,serif" font-size="14.00">updated_at :timestamp without time zone</text>
</g>
<!-- ApplicationRecord&#45;&gt;Deck -->
<g id="edge8" class="edge"><title>ApplicationRecord&#45;&gt;Deck</title>
<path fill="none" stroke="black" d="M377.724,-804.72C456.963,-794.743 579.943,-773.847 608,-738 680.824,-644.955 644.008,-496.811 614.582,-414.706"/>
</g>
<!-- User&#45;&gt;Card -->
<g id="edge4" class="edge"><title>User&#45;&gt;Card</title>
<path fill="none" stroke="#bc4aa0" d="M423.088,-443.39C426.142,-386.705 429.599,-322.537 432.588,-267.058"/>
<ellipse fill="none" stroke="#bc4aa0" cx="422.869" cy="-447.453" rx="4" ry="4"/>
<polygon fill="#bc4aa0" stroke="#bc4aa0" points="432.603,-266.789 437.634,-257.046 432.872,-261.796 433.141,-256.804 433.141,-256.804 433.141,-256.804 432.872,-261.796 428.647,-256.561 432.603,-266.789 432.603,-266.789"/>
</g>
<!-- User&#45;&gt;Authentication -->
<g id="edge3" class="edge"><title>User&#45;&gt;Authentication</title>
<path fill="none" stroke="#b6e1e9" d="M336.74,-444.18C333.048,-437.135 329.434,-430.241 325.956,-423.604"/>
<ellipse fill="none" stroke="#b6e1e9" cx="338.625" cy="-447.777" rx="4.00002" ry="4.00002"/>
<polygon fill="#b6e1e9" stroke="#b6e1e9" points="325.943,-423.579 325.287,-412.633 323.622,-419.151 321.301,-414.722 321.301,-414.722 321.301,-414.722 323.622,-419.151 317.315,-416.811 325.943,-423.579 325.943,-423.579"/>
</g>
<!-- User&#45;&gt;Deck -->
<g id="edge5" class="edge"><title>User&#45;&gt;Deck</title>
<path fill="none" stroke="#4df963" d="M524.13,-444.771C529.644,-437.256 535.036,-429.908 540.21,-422.856"/>
<ellipse fill="none" stroke="#4df963" cx="521.692" cy="-448.095" rx="4.00002" ry="4.00002"/>
<polygon fill="#4df963" stroke="#4df963" points="540.263,-422.784 549.807,-417.384 543.221,-418.753 546.179,-414.722 546.179,-414.722 546.179,-414.722 543.221,-418.753 542.551,-412.06 540.263,-422.784 540.263,-422.784"/>
</g>
<!-- Deck&#45;&gt;Card -->
<g id="edge7" class="edge"><title>Deck&#45;&gt;Card</title>
<path fill="none" stroke="#b7faa4" d="M545.404,-286.552C540.803,-279.696 536.017,-272.566 531.136,-265.293"/>
<ellipse fill="none" stroke="#b7faa4" cx="547.771" cy="-290.078" rx="4.00002" ry="4.00002"/>
<polygon fill="#b7faa4" stroke="#b7faa4" points="530.94,-265.001 529.104,-254.19 528.154,-260.849 525.367,-256.698 525.367,-256.698 525.367,-256.698 528.154,-260.849 521.631,-259.205 530.94,-265.001 530.94,-265.001"/>
</g>
</g>
</svg>
