<?xml version="1.0" encoding="UTF-8" standalone="no"?>
<!DOCTYPE svg PUBLIC "-//W3C//DTD SVG 1.1//EN"
 "http://www.w3.org/Graphics/SVG/1.1/DTD/svg11.dtd">
<!-- Generated by graphviz version 2.38.0 (20140413.2041)
 -->
<!-- Title: models_diagram Pages: 1 -->
<svg width="457pt" height="302pt"
 viewBox="0.00 0.00 457.25 302.00" xmlns="http://www.w3.org/2000/svg" xmlns:xlink="http://www.w3.org/1999/xlink">
<g id="graph0" class="graph" transform="scale(1 1) rotate(0) translate(4 298)">
<title>models_diagram</title>
<polygon fill="none" stroke="none" points="-4,4 -4,-298 453.247,-298 453.247,4 -4,4"/>
<!-- _diagram_info -->
<g id="node1" class="node"><title>_diagram_info</title>
<text text-anchor="start" x="8" y="-279.6" font-family="Times,serif" font-size="13.00">Models diagram</text>
<text text-anchor="start" x="8" y="-265.6" font-family="Times,serif" font-size="13.00">Date: May 11 2017 &#45; 11:29</text>
<text text-anchor="start" x="8" y="-251.6" font-family="Times,serif" font-size="13.00">Migration version: 20170102123521</text>
<text text-anchor="start" x="8" y="-237.6" font-family="Times,serif" font-size="13.00">Generated by RailRoady 1.5.2</text>
<text text-anchor="start" x="8" y="-223.6" font-family="Times,serif" font-size="13.00">http://railroady.prestonlee.com</text>
</g>
<!-- Card -->
<g id="node2" class="node"><title>Card</title>
<ellipse fill="none" stroke="black" cx="363" cy="-18" rx="27.8951" ry="18"/>
<text text-anchor="middle" x="363" y="-14.3" font-family="Times,serif" font-size="14.00">Card</text>
</g>
<!-- ApplicationRecord -->
<g id="node3" class="node"><title>ApplicationRecord</title>
<ellipse fill="none" stroke="black" cx="309" cy="-255" rx="77.1866" ry="18"/>
<text text-anchor="middle" x="309" y="-251.3" font-family="Times,serif" font-size="14.00">ApplicationRecord</text>
</g>
<!-- ApplicationRecord&#45;&gt;Card -->
<g id="edge1" class="edge"><title>ApplicationRecord&#45;&gt;Card</title>
<path fill="none" stroke="black" d="M285.861,-237.57C242.692,-204.906 157.9,-129.959 200,-72 230.954,-29.3859 297.025,-20.3629 334.856,-18.8521"/>
</g>
<!-- Authentication -->
<g id="node4" class="node"><title>Authentication</title>
<ellipse fill="none" stroke="black" cx="272" cy="-90" rx="63.0888" ry="18"/>
<text text-anchor="middle" x="272" y="-86.3" font-family="Times,serif" font-size="14.00">Authentication</text>
</g>
<!-- ApplicationRecord&#45;&gt;Authentication -->
<g id="edge2" class="edge"><title>ApplicationRecord&#45;&gt;Authentication</title>
<path fill="none" stroke="black" d="M305.11,-236.864C298.023,-205.64 283.08,-139.812 275.949,-108.397"/>
</g>
<!-- User -->
<g id="node5" class="node"><title>User</title>
<ellipse fill="none" stroke="black" cx="341" cy="-162" rx="27.0966" ry="18"/>
<text text-anchor="middle" x="341" y="-158.3" font-family="Times,serif" font-size="14.00">User</text>
</g>
<!-- ApplicationRecord&#45;&gt;User -->
<g id="edge6" class="edge"><title>ApplicationRecord&#45;&gt;User</title>
<path fill="none" stroke="black" d="M315.019,-236.884C320.776,-220.511 329.404,-195.975 335.116,-179.732"/>
</g>
<!-- Deck -->
<g id="node6" class="node"><title>Deck</title>
<ellipse fill="none" stroke="black" cx="420" cy="-90" rx="29.4969" ry="18"/>
<text text-anchor="middle" x="420" y="-86.3" font-family="Times,serif" font-size="14.00">Deck</text>
</g>
<!-- ApplicationRecord&#45;&gt;Deck -->
<g id="edge8" class="edge"><title>ApplicationRecord&#45;&gt;Deck</title>
<path fill="none" stroke="black" d="M327.053,-237.295C341.754,-223.046 362.394,-201.506 377,-180 392.909,-156.577 406.173,-126.375 413.593,-107.863"/>
</g>
<!-- User&#45;&gt;Card -->
<g id="edge4" class="edge"><title>User&#45;&gt;Card</title>
<path fill="none" stroke="#30ab03" d="M344.884,-135.929C348.789,-110.725 354.79,-71.9942 358.802,-46.0947"/>
<ellipse fill="none" stroke="#30ab03" cx="344.266" cy="-139.919" rx="4.00001" ry="4.00001"/>
<polygon fill="#30ab03" stroke="#30ab03" points="358.806,-46.0714 364.784,-36.8783 359.571,-41.1303 360.337,-36.1893 360.337,-36.1893 360.337,-36.1893 359.571,-41.1303 355.89,-35.5003 358.806,-46.0714 358.806,-46.0714"/>
</g>
<!-- User&#45;&gt;Authentication -->
<g id="edge3" class="edge"><title>User&#45;&gt;Authentication</title>
<path fill="none" stroke="#4b924b" d="M320.867,-140.576C312.913,-132.506 303.718,-123.178 295.465,-114.805"/>
<ellipse fill="none" stroke="#4b924b" cx="323.895" cy="-143.647" rx="4.00002" ry="4.00002"/>
<polygon fill="#4b924b" stroke="#4b924b" points="295.233,-114.57 291.418,-104.289 291.723,-111.009 288.213,-107.448 288.213,-107.448 288.213,-107.448 291.723,-111.009 285.008,-110.607 295.233,-114.57 295.233,-114.57"/>
</g>
<!-- User&#45;&gt;Deck -->
<g id="edge5" class="edge"><title>User&#45;&gt;Deck</title>
<path fill="none" stroke="#0f92b3" d="M362.704,-141.769C373.08,-132.575 385.526,-121.546 396.164,-112.12"/>
<ellipse fill="none" stroke="#0f92b3" cx="359.602" cy="-144.517" rx="4.00002" ry="4.00002"/>
<polygon fill="#0f92b3" stroke="#0f92b3" points="396.398,-111.914 406.867,-108.65 400.14,-108.598 403.882,-105.282 403.882,-105.282 403.882,-105.282 400.14,-108.598 400.898,-101.914 396.398,-111.914 396.398,-111.914"/>
</g>
<!-- Deck&#45;&gt;Card -->
<g id="edge7" class="edge"><title>Deck&#45;&gt;Card</title>
<path fill="none" stroke="#c33a4e" d="M402.212,-67.1552C395.811,-59.2938 388.565,-50.3962 382.06,-42.407"/>
<ellipse fill="none" stroke="#c33a4e" cx="404.824" cy="-70.363" rx="4.00002" ry="4.00002"/>
<polygon fill="#c33a4e" stroke="#c33a4e" points="381.929,-42.2462 379.104,-31.6504 378.772,-38.369 375.615,-34.4918 375.615,-34.4918 375.615,-34.4918 378.772,-38.369 372.125,-37.3333 381.929,-42.2462 381.929,-42.2462"/>
</g>
</g>
</svg>
